<svg xmlns="http://www.w3.org/2000/svg" width="1280" height="640" viewBox="0 0 1280 640" fill="none" role="img" aria-label="WaveKit — MAKE SENSE OF THE SPECTRUM">
<title>WaveKit — MAKE SENSE OF THE SPECTRUM</title>
<desc>Repository banner; decorative spectrum, not real measured data.</desc>
<rect x="0" y="0" width="1280" height="640" rx="0" fill="#111C19"/><g transform="translate(64 158) scale(0.99)"><g data-part="signal-w" transform="translate(-17.76 -44.92) scale(.92)"><path d="M28 68C72 68 34 188 78 188C112 188 94 104 128 104C162 104 144 188 178 188C222 188 184 68 228 68" stroke="#7BECC7" stroke-width="26" stroke-linecap="butt" stroke-linejoin="round" fill="none"/></g><g data-part="lettering" transform="translate(195.936 140)"><path fill="#F4F7F5" d="M38.145 1.494C53.262 1.494 61.084 -4.834 65.479 -13.096H65.83V0H87.627V-63.281C87.627 -82.617 73.301 -94.658 49.131 -94.658C24.873 -94.658 9.756 -82.441 8.701 -63.984H30.059C30.674 -71.807 37.881 -77.432 48.691 -77.432C59.326 -77.432 65.654 -71.807 65.654 -63.896V-63.193C65.654 -56.865 59.766 -56.602 42.539 -54.668C23.379 -52.646 6.064 -47.461 6.064 -26.367C6.064 -7.822 19.688 1.494 38.145 1.494ZM43.594 -14.941C33.926 -14.941 27.686 -19.248 27.686 -26.543C27.686 -34.98 35.771 -38.408 45.264 -39.814C54.404 -41.221 63.018 -42.627 65.742 -44.385V-34.365C65.742 -23.555 58.096 -14.941 43.594 -14.941ZM129.857 0H154.115L189.008 -92.812H165.805L149.105 -44.473C146.732 -37.178 144.535 -29.795 142.338 -22.5C140.053 -29.795 137.768 -37.178 135.395 -44.473L118.432 -92.812H94.965ZM237.391 2.109C259.1 2.109 276.326 -10.459 279.842 -28.652H259.1C256.551 -20.742 249.08 -15.381 237.918 -15.381C222.977 -15.381 214.363 -25.488 213.836 -40.605H280.984V-46.67C280.984 -75.146 263.23 -94.922 236.512 -94.922C210.496 -94.922 192.127 -74.531 192.127 -46.318C192.127 -18.193 209.529 2.109 237.391 2.109ZM214.012 -55.898C215.506 -69.17 224.031 -77.344 236.863 -77.344C249.695 -77.344 258.309 -69.17 259.715 -55.898ZM292.014 0H314.162V-31.025L322.6 -39.727L353.01 0H379.465L339.475 -52.734L377.18 -92.812H350.549L314.426 -55.195H314.162V-130.957H292.014ZM384.518 0H406.666V-92.812H384.518ZM395.592 -106.611C403.15 -106.611 408.863 -112.061 408.863 -119.268C408.863 -126.387 403.15 -131.836 395.592 -131.836C388.033 -131.836 382.32 -126.387 382.32 -119.268C382.32 -112.061 388.033 -106.611 395.592 -106.611ZM471.309 -92.812H452.412V-118.125H430.176V-92.812H414.004V-74.971H430.176V-23.379C430.176 -7.471 439.053 0 457.949 0H471.309V-17.842H461.816C454.609 -17.842 452.412 -20.039 452.412 -26.631V-74.971H471.309Z"/></g><g data-part="baseline" transform="translate(91.918 199)"><path fill="#F4F7F5" d="M12.564 0 7.128 -19.332H6.984Q7.092 -17.748 7.182 -15.966Q7.272 -14.184 7.272 -12.852V0H2.592V-25.704H9.576L14.724 -7.488H14.832L20.088 -25.704H27.072V0H22.248V-12.96Q22.248 -14.328 22.302 -16.056Q22.356 -17.784 22.464 -19.296H22.32L16.74 0ZM46.092 0 44.616 -6.156H37.776L36.3 0H30.828L37.92 -25.74H44.364L51.528 0ZM42.132 -17.1Q41.916 -18.252 41.628 -19.566Q41.34 -20.88 41.196 -21.852Q41.052 -20.88 40.764 -19.53Q40.476 -18.18 40.224 -17.136L38.712 -10.548H43.68ZM72.96 0H67.272L62.196 -10.584L60.396 -9.072V0H55.32V-25.704H60.396V-13.896Q60.684 -14.58 61.134 -15.408Q61.584 -16.236 62.124 -17.208L67.38 -25.704H72.888L65.796 -14.292ZM89.1 0H76.572V-25.704H89.1V-21.42H81.648V-15.48H88.56V-11.196H81.648V-4.356H89.1ZM116.304 -7.416Q116.304 -5.112 115.314 -3.348Q114.324 -1.584 112.506 -0.612Q110.688 0.36 108.168 0.36Q106.44 0.36 104.874 0.018Q103.308 -0.324 101.796 -1.08V-6.156Q103.344 -5.256 104.982 -4.716Q106.62 -4.176 108.132 -4.176Q109.716 -4.176 110.454 -4.986Q111.192 -5.796 111.192 -6.984Q111.192 -8.28 110.31 -9.144Q109.428 -10.008 107.268 -11.232Q105.864 -12.024 104.658 -12.96Q103.452 -13.896 102.732 -15.282Q102.012 -16.668 102.012 -18.792Q102.012 -22.14 104.064 -24.12Q106.116 -26.1 109.752 -26.064Q111.444 -26.064 113.046 -25.632Q114.648 -25.2 116.232 -24.408L114.72 -20.052Q111.948 -21.564 109.824 -21.564Q108.456 -21.564 107.754 -20.844Q107.052 -20.124 107.052 -19.044Q107.052 -18.108 107.412 -17.478Q107.772 -16.848 108.654 -16.254Q109.536 -15.66 111.048 -14.832Q113.604 -13.428 114.954 -11.754Q116.304 -10.08 116.304 -7.416ZM133.812 0H121.284V-25.704H133.812V-21.42H126.36V-15.48H133.272V-11.196H126.36V-4.356H133.812ZM158.592 0H152.436L143.832 -18.396H143.688Q143.796 -16.524 143.868 -14.904Q143.94 -13.284 143.976 -11.988V0H139.296V-25.704H145.38L153.984 -7.668H154.092Q154.02 -9.468 153.948 -11.016Q153.876 -12.564 153.84 -13.86V-25.704H158.592ZM178.152 -7.416Q178.152 -5.112 177.162 -3.348Q176.172 -1.584 174.354 -0.612Q172.536 0.36 170.016 0.36Q168.288 0.36 166.722 0.018Q165.156 -0.324 163.644 -1.08V-6.156Q165.192 -5.256 166.83 -4.716Q168.468 -4.176 169.98 -4.176Q171.564 -4.176 172.302 -4.986Q173.04 -5.796 173.04 -6.984Q173.04 -8.28 172.158 -9.144Q171.276 -10.008 169.116 -11.232Q167.712 -12.024 166.506 -12.96Q165.3 -13.896 164.58 -15.282Q163.86 -16.668 163.86 -18.792Q163.86 -22.14 165.912 -24.12Q167.964 -26.1 171.6 -26.064Q173.292 -26.064 174.894 -25.632Q176.496 -25.2 178.08 -24.408L176.568 -20.052Q173.796 -21.564 171.672 -21.564Q170.304 -21.564 169.602 -20.844Q168.9 -20.124 168.9 -19.044Q168.9 -18.108 169.26 -17.478Q169.62 -16.848 170.502 -16.254Q171.384 -15.66 172.896 -14.832Q175.452 -13.428 176.802 -11.754Q178.152 -10.08 178.152 -7.416ZM195.66 0H183.132V-25.704H195.66V-21.42H188.208V-15.48H195.12V-11.196H188.208V-4.356H195.66ZM228.876 -12.888Q228.876 -8.82 227.796 -5.85Q226.716 -2.88 224.484 -1.26Q222.252 0.36 218.832 0.36Q215.412 0.36 213.18 -1.278Q210.948 -2.916 209.868 -5.904Q208.788 -8.892 208.788 -12.924Q208.788 -19.26 211.308 -22.68Q213.828 -26.1 218.868 -26.1Q222.288 -26.1 224.502 -24.48Q226.716 -22.86 227.796 -19.908Q228.876 -16.956 228.876 -12.888ZM214.08 -12.888Q214.08 -8.568 215.25 -6.318Q216.42 -4.068 218.832 -4.068Q221.28 -4.068 222.432 -6.282Q223.584 -8.496 223.584 -12.888Q223.584 -17.244 222.432 -19.494Q221.28 -21.744 218.868 -21.744Q216.42 -21.744 215.25 -19.476Q214.08 -17.208 214.08 -12.888ZM239.436 0H234.396V-25.704H246.852V-21.42H239.436V-14.544H246.348V-10.26H239.436ZM268.944 0H263.904V-21.348H258.468V-25.704H274.38V-21.348H268.944ZM296.424 0H291.348V-11.196H283.824V0H278.748V-25.704H283.824V-15.552H291.348V-25.704H296.424ZM315.336 0H302.808V-25.704H315.336V-21.42H307.884V-15.48H314.796V-11.196H307.884V-4.356H315.336ZM342.54 -7.416Q342.54 -5.112 341.55 -3.348Q340.56 -1.584 338.742 -0.612Q336.924 0.36 334.404 0.36Q332.676 0.36 331.11 0.018Q329.544 -0.324 328.032 -1.08V-6.156Q329.58 -5.256 331.218 -4.716Q332.856 -4.176 334.368 -4.176Q335.952 -4.176 336.69 -4.986Q337.428 -5.796 337.428 -6.984Q337.428 -8.28 336.546 -9.144Q335.664 -10.008 333.504 -11.232Q332.1 -12.024 330.894 -12.96Q329.688 -13.896 328.968 -15.282Q328.248 -16.668 328.248 -18.792Q328.248 -22.14 330.3 -24.12Q332.352 -26.1 335.988 -26.064Q337.68 -26.064 339.282 -25.632Q340.884 -25.2 342.468 -24.408L340.956 -20.052Q338.184 -21.564 336.06 -21.564Q334.692 -21.564 333.99 -20.844Q333.288 -20.124 333.288 -19.044Q333.288 -18.108 333.648 -17.478Q334.008 -16.848 334.89 -16.254Q335.772 -15.66 337.284 -14.832Q339.84 -13.428 341.19 -11.754Q342.54 -10.08 342.54 -7.416ZM354.54 -25.704Q358.752 -25.704 360.786 -23.634Q362.82 -21.564 362.82 -17.712Q362.82 -15.228 361.938 -13.284Q361.056 -11.34 359.166 -10.224Q357.276 -9.108 354.252 -9.108H352.596V0H347.52V-25.704ZM354.216 -21.42H352.596V-13.392H353.748Q355.656 -13.392 356.7 -14.382Q357.744 -15.372 357.744 -17.64Q357.744 -19.584 356.862 -20.502Q355.98 -21.42 354.216 -21.42ZM380.364 0H367.836V-25.704H380.364V-21.42H372.912V-15.48H379.824V-11.196H372.912V-4.356H380.364ZM395.28 -21.744Q393.588 -21.744 392.472 -20.592Q391.356 -19.44 390.798 -17.424Q390.24 -15.408 390.24 -12.78Q390.24 -8.532 391.554 -6.264Q392.868 -3.996 395.46 -3.996Q396.756 -3.996 397.98 -4.392Q399.204 -4.788 400.5 -5.364V-0.936Q397.944 0.36 394.812 0.36Q389.988 0.36 387.486 -3.132Q384.984 -6.624 384.984 -12.816Q384.984 -16.668 386.154 -19.656Q387.324 -22.644 389.556 -24.354Q391.788 -26.064 395.028 -26.064Q398.376 -26.064 401.328 -24.408L399.816 -20.232Q398.736 -20.88 397.602 -21.312Q396.468 -21.744 395.28 -21.744ZM414.552 0H409.512V-21.348H404.076V-25.704H419.988V-21.348H414.552ZM430.764 -25.704Q439.764 -25.704 439.764 -18.18Q439.764 -15.732 438.72 -14.022Q437.676 -12.312 435.768 -11.268L441.744 0H436.128L431.34 -10.008H429.432V0H424.356V-25.704ZM430.62 -21.456H429.432V-14.076H430.728Q434.616 -14.076 434.616 -17.964Q434.616 -19.764 433.644 -20.61Q432.672 -21.456 430.62 -21.456ZM462.888 -8.64Q462.888 -4.356 460.656 -1.998Q458.424 0.36 454.104 0.36Q449.856 0.36 447.642 -1.926Q445.428 -4.212 445.428 -8.604V-25.704H450.504V-8.964Q450.504 -6.3 451.422 -5.184Q452.34 -4.068 454.14 -4.068Q456.048 -4.068 456.93 -5.202Q457.812 -6.336 457.812 -9V-25.704H462.888ZM479.064 0 473.628 -19.332H473.484Q473.592 -17.748 473.682 -15.966Q473.772 -14.184 473.772 -12.852V0H469.092V-25.704H476.076L481.224 -7.488H481.332L486.588 -25.704H493.572V0H488.748V-12.96Q488.748 -14.328 488.802 -16.056Q488.856 -17.784 488.964 -19.296H488.82L483.24 0Z"/></g></g><g transform="translate(757 184) scale(0.675)"><path d="M0 8L0 216" stroke="#2C443B" stroke-width="1" stroke-dasharray="2 7"/><path d="M68 8L68 216" stroke="#2C443B" stroke-width="1" stroke-dasharray="2 7"/><path d="M136 8L136 216" stroke="#2C443B" stroke-width="1" stroke-dasharray="2 7"/><path d="M204 8L204 216" stroke="#2C443B" stroke-width="1" stroke-dasharray="2 7"/><path d="M272 8L272 216" stroke="#2C443B" stroke-width="1" stroke-dasharray="2 7"/><path d="M340 8L340 216" stroke="#2C443B" stroke-width="1" stroke-dasharray="2 7"/><path d="M408 8L408 216" stroke="#2C443B" stroke-width="1" stroke-dasharray="2 7"/><path d="M476 8L476 216" stroke="#2C443B" stroke-width="1" stroke-dasharray="2 7"/><path d="M544 8L544 216" stroke="#2C443B" stroke-width="1" stroke-dasharray="2 7"/><path d="M612 8L612 216" stroke="#2C443B" stroke-width="1" stroke-dasharray="2 7"/><path d="M680 8L680 216" stroke="#2C443B" stroke-width="1" stroke-dasharray="2 7"/><path d="M0 56H680" stroke="#2C443B" stroke-width="1" opacity=".55"/><path d="M0 112H680" stroke="#2C443B" stroke-width="1" opacity=".55"/><path d="M0 168H680" stroke="#2C443B" stroke-width="1" opacity=".55"/><path d="M0 195.127L1 197.833L2 197.839L3 200.277L4 200.129L5 195.347L6 196.338L7 200.457L8 196.38L9 198.431L10 200.411L11 197.611L12 195.435L13 198.786L14 196.831L15 196.604L16 200.999L17 197.103L18 200.928L19 200.452L20 199.303L21 199.254L22 197.17L23 197.452L24 198.531L25 196.071L26 199.134L27 200.112L28 197.614L29 195.613L30 198.064L31 198.269L32 199.446L33 195.171L34 195.657L35 198.218L36 197.573L37 198.296L38 196.725L39 200.225L40 196.378L41 198.81L42 196.631L43 198.309L44 200.203L45 196.962L46 200.528L47 196.346L48 199.549L49 199.506L50 196.566L51 198.696L52 195.66L53 195.308L54 198.065L55 198.149L56 198.665L57 197.669L58 199.067L59 195.835L60 200.1L61 195.811L62 198.867L63 195.87L64 199.78L65 196.462L66 198.704L67 199.95L68 198.293L69 199.892L70 198.779L71 196.77L72 197.703L73 197.951L74 198.303L75 197.171L76 197.716L77 198.934L78 195.999L79 196.294L80 198.886L81 199.584L82 199.774L83 195.375L84 195.541L85 195.726L86 198.118L87 199.127L88 195.869L89 196.395L90 198.128L91 193.258L92 192.044L93 187.538L94 179.569L95 171.156L96 163.251L97 156.767L98 158.85L99 160.65L100 164.295L101 172.667L102 182.369L103 186.444L104 191.218L105 195.301L106 194.554L107 195.568L108 200.502L109 194.99L110 195.032L111 199.159L112 195.346L113 197.406L114 194.408L115 195.728L116 195.684L117 194.379L118 198.909L119 198.541L120 194.001L121 200.099L122 194.643L123 199.558L124 194.825L125 194.117L126 198.406L127 194.585L128 197.972L129 194.464L130 195.928L131 194.968L132 196.42L133 193.824L134 198.854L135 192.782L136 194.471L137 194.668L138 190.068L139 192.536L140 192.299L141 189.979L142 192.196L143 192.976L144 189.347L145 196.018L146 192.433L147 194.277L148 192.972L149 191.799L150 192.626L151 193.136L152 187.191L153 192.213L154 186.955L155 187.375L156 190.868L157 185.026L158 187.416L159 187.226L160 183.624L161 191.809L162 175.625L163 175.732L164 171.958L165 150.876L166 143.146L167 132.958L168 114.6L169 108.975L170 95.096L171 89.326L172 101.219L173 100.03L174 117.562L175 129.877L176 136.306L177 152.117L178 146.052L179 136.179L180 129.036L181 115.901L182 134.173L183 150.53L184 162.415L185 184.529L186 182.68L187 186.859L188 196.72L189 182.621L190 189.871L191 191.067L192 186.188L193 194.05L194 186.023L195 186.945L196 197.869L197 186.712L198 191.364L199 193.992L200 191.139L201 190.627L202 194.489L203 188.186L204 198.214L205 189.31L206 189.75L207 196.86L208 194.114L209 192.333L210 193.923L211 190.748L212 193.285L213 192.873L214 196.743L215 194.693L216 193.964L217 195.601L218 197.645L219 192.495L220 195.348L221 195.052L222 193.311L223 196.541L224 193.732L225 193.547L226 195.099L227 193.693L228 197.428L229 194.242L230 198.141L231 195.26L232 198.792L233 196.18L234 194.574L235 194.726L236 195.015L237 197.119L238 198.597L239 199.558L240 198.683L241 200.594L242 197.558L243 195.865L244 196.824L245 197.293L246 195.772L247 197.359L248 197.907L249 197.847L250 196.607L251 198.337L252 199.865L253 197.363L254 197.918L255 197.612L256 195.836L257 196.963L258 198.11L259 198.832L260 196.523L261 196.557L262 200.591L263 197.014L264 195.038L265 198.995L266 199.951L267 195.667L268 196.971L269 200.707L270 200.147L271 195.951L272 197.522L273 198.377L274 197.396L275 195.235L276 195.891L277 195.464L278 200.749L279 200.625L280 198.389L281 197.823L282 200.284L283 198.665L284 196.433L285 198.846L286 199.493L287 197.011L288 195.917L289 200.67L290 195.34L291 193.761L292 194.913L293 190.985L294 186.928L295 178.537L296 167.541L297 159.46L298 150.731L299 148.265L300 146.828L301 159.528L302 167.85L303 174.182L304 184.008L305 188.091L306 195.437L307 199.174L308 199.736L309 199.188L310 200.192L311 196.721L312 197.31L313 196.452L314 198.603L315 196.801L316 198.101L317 200.06L318 200.211L319 198.341L320 199.289L321 200.735L322 196.449L323 195.02L324 199.64L325 199.637L326 197.25L327 198.996L328 195.358L329 197.966L330 195.013L331 200.458L332 197.976L333 198.136L334 195.494L335 199.047L336 200.101L337 194.96L338 195.743L339 200.355L340 197.701L341 195.252L342 194.528L343 197.062L344 195.718L345 195.887L346 194.634L347 196.358L348 196.33L349 196.588L350 198.796L351 196.458L352 194.982L353 196.333L354 198.79L355 197.636L356 195.445L357 196.925L358 194.055L359 197.278L360 199.697L361 193.007L362 193.308L363 193.968L364 194.663L365 198.303L366 195.291L367 193.518L368 196.343L369 192.919L370 194.4L371 193.492L372 194.426L373 196.056L374 193.621L375 192.047L376 197.482L377 192.801L378 189.816L379 190.628L380 190.04L381 194.452L382 193.379L383 189.509L384 194.515L385 189.255L386 191.872L387 189.413L388 183.878L389 192.889L390 186L391 185.133L392 196.999L393 184.061L394 183.956L395 188.632L396 182.672L397 190.062L398 186.669L399 180.137L400 194.533L401 180.293L402 185.995L403 189.484L404 181.086L405 184.703L406 184.127L407 177.041L408 187.932L409 180.706L410 178.832L411 191.185L412 174.404L413 182.947L414 178.263L415 165.327L416 168.399L417 137.084L418 109.891L419 91.459L420 47.519L421 34.588L422 24.872L423 25.942L424 58.447L425 80.344L426 113.699L427 150.031L428 146.152L429 146.203L430 136.988L431 115.793L432 115.245L433 120.287L434 136.165L435 172.092L436 167.157L437 176.938L438 185.821L439 175.355L440 187.937L441 184.751L442 177.305L443 190.229L444 175.106L445 171.5L446 171.868L447 150.89L448 155.599L449 156.167L450 165.517L451 180.389L452 177.871L453 180.699L454 191.169L455 182.065L456 187.797L457 190.247L458 186.059L459 190.603L460 188.862L461 184.774L462 191.373L463 184.252L464 193.195L465 194.488L466 190.756L467 196.721L468 193.168L469 191.448L470 194.396L471 190.869L472 192.008L473 191.422L474 188.325L475 192.895L476 190.172L477 191.468L478 193.578L479 192.491L480 193.549L481 197.07L482 193.257L483 196.565L484 194.423L485 195.274L486 196.367L487 193.588L488 192.868L489 199.338L490 195.324L491 196.571L492 195.495L493 195.034L494 200.388L495 194.23L496 195.747L497 199.949L498 197.191L499 194.656L500 196.116L501 194.943L502 195.787L503 197.01L504 196.133L505 198.466L506 198.342L507 197.404L508 196.329L509 195.432L510 198.061L511 196.728L512 199.621L513 196.194L514 196.543L515 199.866L516 195.187L517 197.057L518 199.986L519 199.892L520 198.049L521 195.761L522 197.423L523 195.957L524 199.29L525 198.342L526 199.057L527 199.106L528 195.678L529 195.696L530 199.011L531 198.695L532 197.323L533 195.492L534 198.784L535 194.717L536 192.773L537 199.047L538 196.044L539 197.933L540 196.32L541 193.908L542 195.04L543 192.206L544 194.434L545 198.681L546 190.678L547 195.71L548 196.41L549 193.267L550 191.418L551 195.057L552 187.323L553 191.239L554 184.619L555 173.359L556 169.862L557 152.618L558 147.978L559 134.306L560 130.599L561 141.957L562 145.381L563 151.973L564 169.509L565 174.118L566 183.468L567 190.737L568 187.455L569 191.471L570 193.298L571 191.906L572 193.132L573 190.11L574 193.281L575 194.619L576 195.631L577 195.839L578 196.051L579 191.491L580 195.888L581 196.228L582 196.933L583 195.23L584 197.553L585 194.365L586 196.736L587 195.048L588 198.204L589 197.558L590 196.443L591 196.614L592 196.297L593 196.548L594 199.319L595 198.688L596 195.59L597 198.14L598 198.43L599 196.541L600 197.107L601 197.41L602 198.672L603 195.618L604 197.631L605 194.018L606 185.845L607 179.229L608 178.585L609 182.8L610 183.914L611 191.072L612 197.776L613 199.723L614 199.99L615 200.937L616 195.107L617 196.849L618 200.72L619 200.234L620 196.354L621 200.375L622 195.737L623 199.867L624 199.908L625 199.311L626 200.814L627 196.741L628 197.797L629 200.27L630 199.641L631 196.402L632 198.974L633 200.666L634 196.285L635 199.956L636 198.518L637 198.389L638 195.402L639 195.602L640 195.82L641 195.205L642 200.38L643 199.525L644 198.232L645 195.706L646 198.048L647 196.192L648 196.749L649 198.019L650 200.507L651 200.467L652 198.719L653 195.891L654 199.08L655 198.574L656 195.097L657 197.414L658 199.507L659 197.187L660 198.607L661 196.86L662 195.212L663 198.652L664 197.174L665 197.631L666 198.19L667 199.571L668 200.686L669 200.219L670 197.949L671 195.449L672 195.695L673 196.959L674 200.614L675 198.899L676 199.284L677 197.112L678 196.707L679 195.164L680 199.023L680 211H0Z" fill="#7BECC7" opacity=".065"/><path d="M0 195.127L1 197.833L2 197.839L3 200.277L4 200.129L5 195.347L6 196.338L7 200.457L8 196.38L9 198.431L10 200.411L11 197.611L12 195.435L13 198.786L14 196.831L15 196.604L16 200.999L17 197.103L18 200.928L19 200.452L20 199.303L21 199.254L22 197.17L23 197.452L24 198.531L25 196.071L26 199.134L27 200.112L28 197.614L29 195.613L30 198.064L31 198.269L32 199.446L33 195.171L34 195.657L35 198.218L36 197.573L37 198.296L38 196.725L39 200.225L40 196.378L41 198.81L42 196.631L43 198.309L44 200.203L45 196.962L46 200.528L47 196.346L48 199.549L49 199.506L50 196.566L51 198.696L52 195.66L53 195.308L54 198.065L55 198.149L56 198.665L57 197.669L58 199.067L59 195.835L60 200.1L61 195.811L62 198.867L63 195.87L64 199.78L65 196.462L66 198.704L67 199.95L68 198.293L69 199.892L70 198.779L71 196.77L72 197.703L73 197.951L74 198.303L75 197.171L76 197.716L77 198.934L78 195.999L79 196.294L80 198.886L81 199.584L82 199.774L83 195.375L84 195.541L85 195.726L86 198.118L87 199.127L88 195.869L89 196.395L90 198.128L91 193.258L92 192.044L93 187.538L94 179.569L95 171.156L96 163.251L97 156.767L98 158.85L99 160.65L100 164.295L101 172.667L102 182.369L103 186.444L104 191.218L105 195.301L106 194.554L107 195.568L108 200.502L109 194.99L110 195.032L111 199.159L112 195.346L113 197.406L114 194.408L115 195.728L116 195.684L117 194.379L118 198.909L119 198.541L120 194.001L121 200.099L122 194.643L123 199.558L124 194.825L125 194.117L126 198.406L127 194.585L128 197.972L129 194.464L130 195.928L131 194.968L132 196.42L133 193.824L134 198.854L135 192.782L136 194.471L137 194.668L138 190.068L139 192.536L140 192.299L141 189.979L142 192.196L143 192.976L144 189.347L145 196.018L146 192.433L147 194.277L148 192.972L149 191.799L150 192.626L151 193.136L152 187.191L153 192.213L154 186.955L155 187.375L156 190.868L157 185.026L158 187.416L159 187.226L160 183.624L161 191.809L162 175.625L163 175.732L164 171.958L165 150.876L166 143.146L167 132.958L168 114.6L169 108.975L170 95.096L171 89.326L172 101.219L173 100.03L174 117.562L175 129.877L176 136.306L177 152.117L178 146.052L179 136.179L180 129.036L181 115.901L182 134.173L183 150.53L184 162.415L185 184.529L186 182.68L187 186.859L188 196.72L189 182.621L190 189.871L191 191.067L192 186.188L193 194.05L194 186.023L195 186.945L196 197.869L197 186.712L198 191.364L199 193.992L200 191.139L201 190.627L202 194.489L203 188.186L204 198.214L205 189.31L206 189.75L207 196.86L208 194.114L209 192.333L210 193.923L211 190.748L212 193.285L213 192.873L214 196.743L215 194.693L216 193.964L217 195.601L218 197.645L219 192.495L220 195.348L221 195.052L222 193.311L223 196.541L224 193.732L225 193.547L226 195.099L227 193.693L228 197.428L229 194.242L230 198.141L231 195.26L232 198.792L233 196.18L234 194.574L235 194.726L236 195.015L237 197.119L238 198.597L239 199.558L240 198.683L241 200.594L242 197.558L243 195.865L244 196.824L245 197.293L246 195.772L247 197.359L248 197.907L249 197.847L250 196.607L251 198.337L252 199.865L253 197.363L254 197.918L255 197.612L256 195.836L257 196.963L258 198.11L259 198.832L260 196.523L261 196.557L262 200.591L263 197.014L264 195.038L265 198.995L266 199.951L267 195.667L268 196.971L269 200.707L270 200.147L271 195.951L272 197.522L273 198.377L274 197.396L275 195.235L276 195.891L277 195.464L278 200.749L279 200.625L280 198.389L281 197.823L282 200.284L283 198.665L284 196.433L285 198.846L286 199.493L287 197.011L288 195.917L289 200.67L290 195.34L291 193.761L292 194.913L293 190.985L294 186.928L295 178.537L296 167.541L297 159.46L298 150.731L299 148.265L300 146.828L301 159.528L302 167.85L303 174.182L304 184.008L305 188.091L306 195.437L307 199.174L308 199.736L309 199.188L310 200.192L311 196.721L312 197.31L313 196.452L314 198.603L315 196.801L316 198.101L317 200.06L318 200.211L319 198.341L320 199.289L321 200.735L322 196.449L323 195.02L324 199.64L325 199.637L326 197.25L327 198.996L328 195.358L329 197.966L330 195.013L331 200.458L332 197.976L333 198.136L334 195.494L335 199.047L336 200.101L337 194.96L338 195.743L339 200.355L340 197.701L341 195.252L342 194.528L343 197.062L344 195.718L345 195.887L346 194.634L347 196.358L348 196.33L349 196.588L350 198.796L351 196.458L352 194.982L353 196.333L354 198.79L355 197.636L356 195.445L357 196.925L358 194.055L359 197.278L360 199.697L361 193.007L362 193.308L363 193.968L364 194.663L365 198.303L366 195.291L367 193.518L368 196.343L369 192.919L370 194.4L371 193.492L372 194.426L373 196.056L374 193.621L375 192.047L376 197.482L377 192.801L378 189.816L379 190.628L380 190.04L381 194.452L382 193.379L383 189.509L384 194.515L385 189.255L386 191.872L387 189.413L388 183.878L389 192.889L390 186L391 185.133L392 196.999L393 184.061L394 183.956L395 188.632L396 182.672L397 190.062L398 186.669L399 180.137L400 194.533L401 180.293L402 185.995L403 189.484L404 181.086L405 184.703L406 184.127L407 177.041L408 187.932L409 180.706L410 178.832L411 191.185L412 174.404L413 182.947L414 178.263L415 165.327L416 168.399L417 137.084L418 109.891L419 91.459L420 47.519L421 34.588L422 24.872L423 25.942L424 58.447L425 80.344L426 113.699L427 150.031L428 146.152L429 146.203L430 136.988L431 115.793L432 115.245L433 120.287L434 136.165L435 172.092L436 167.157L437 176.938L438 185.821L439 175.355L440 187.937L441 184.751L442 177.305L443 190.229L444 175.106L445 171.5L446 171.868L447 150.89L448 155.599L449 156.167L450 165.517L451 180.389L452 177.871L453 180.699L454 191.169L455 182.065L456 187.797L457 190.247L458 186.059L459 190.603L460 188.862L461 184.774L462 191.373L463 184.252L464 193.195L465 194.488L466 190.756L467 196.721L468 193.168L469 191.448L470 194.396L471 190.869L472 192.008L473 191.422L474 188.325L475 192.895L476 190.172L477 191.468L478 193.578L479 192.491L480 193.549L481 197.07L482 193.257L483 196.565L484 194.423L485 195.274L486 196.367L487 193.588L488 192.868L489 199.338L490 195.324L491 196.571L492 195.495L493 195.034L494 200.388L495 194.23L496 195.747L497 199.949L498 197.191L499 194.656L500 196.116L501 194.943L502 195.787L503 197.01L504 196.133L505 198.466L506 198.342L507 197.404L508 196.329L509 195.432L510 198.061L511 196.728L512 199.621L513 196.194L514 196.543L515 199.866L516 195.187L517 197.057L518 199.986L519 199.892L520 198.049L521 195.761L522 197.423L523 195.957L524 199.29L525 198.342L526 199.057L527 199.106L528 195.678L529 195.696L530 199.011L531 198.695L532 197.323L533 195.492L534 198.784L535 194.717L536 192.773L537 199.047L538 196.044L539 197.933L540 196.32L541 193.908L542 195.04L543 192.206L544 194.434L545 198.681L546 190.678L547 195.71L548 196.41L549 193.267L550 191.418L551 195.057L552 187.323L553 191.239L554 184.619L555 173.359L556 169.862L557 152.618L558 147.978L559 134.306L560 130.599L561 141.957L562 145.381L563 151.973L564 169.509L565 174.118L566 183.468L567 190.737L568 187.455L569 191.471L570 193.298L571 191.906L572 193.132L573 190.11L574 193.281L575 194.619L576 195.631L577 195.839L578 196.051L579 191.491L580 195.888L581 196.228L582 196.933L583 195.23L584 197.553L585 194.365L586 196.736L587 195.048L588 198.204L589 197.558L590 196.443L591 196.614L592 196.297L593 196.548L594 199.319L595 198.688L596 195.59L597 198.14L598 198.43L599 196.541L600 197.107L601 197.41L602 198.672L603 195.618L604 197.631L605 194.018L606 185.845L607 179.229L608 178.585L609 182.8L610 183.914L611 191.072L612 197.776L613 199.723L614 199.99L615 200.937L616 195.107L617 196.849L618 200.72L619 200.234L620 196.354L621 200.375L622 195.737L623 199.867L624 199.908L625 199.311L626 200.814L627 196.741L628 197.797L629 200.27L630 199.641L631 196.402L632 198.974L633 200.666L634 196.285L635 199.956L636 198.518L637 198.389L638 195.402L639 195.602L640 195.82L641 195.205L642 200.38L643 199.525L644 198.232L645 195.706L646 198.048L647 196.192L648 196.749L649 198.019L650 200.507L651 200.467L652 198.719L653 195.891L654 199.08L655 198.574L656 195.097L657 197.414L658 199.507L659 197.187L660 198.607L661 196.86L662 195.212L663 198.652L664 197.174L665 197.631L666 198.19L667 199.571L668 200.686L669 200.219L670 197.949L671 195.449L672 195.695L673 196.959L674 200.614L675 198.899L676 199.284L677 197.112L678 196.707L679 195.164L680 199.023" stroke="#7BECC7" stroke-width="1.35" fill="none" stroke-linejoin="round" stroke-linecap="round"/></g><g aria-label="SOFTWARE-DEFINED RADIO" transform="translate(64 64)"><path fill="#B9CAC1" d="M8.176 -3.168Q8.176 -1.648 7.08 -0.744Q5.984 0.16 3.968 0.16Q2.16 0.16 0.736 -0.528V-2.784Q1.552 -2.432 2.424 -2.136Q3.296 -1.84 4.16 -1.84Q5.056 -1.84 5.432 -2.184Q5.808 -2.528 5.808 -3.056Q5.808 -3.488 5.512 -3.792Q5.216 -4.096 4.72 -4.36Q4.224 -4.624 3.584 -4.928Q3.184 -5.12 2.72 -5.384Q2.256 -5.648 1.832 -6.04Q1.408 -6.432 1.136 -6.992Q0.864 -7.552 0.864 -8.336Q0.864 -9.872 1.904 -10.728Q2.944 -11.584 4.736 -11.584Q5.632 -11.584 6.44 -11.376Q7.248 -11.168 8.128 -10.784L7.344 -8.896Q6.56 -9.216 5.936 -9.392Q5.312 -9.568 4.656 -9.568Q3.968 -9.568 3.6 -9.248Q3.232 -8.928 3.232 -8.416Q3.232 -7.808 3.776 -7.456Q4.32 -7.104 5.392 -6.592Q6.272 -6.176 6.888 -5.728Q7.504 -5.28 7.84 -4.672Q8.176 -4.064 8.176 -3.168ZM21.624 -5.728Q21.624 -3.952 21.04 -2.632Q20.456 -1.312 19.256 -0.576Q18.056 0.16 16.184 0.16Q14.328 0.16 13.12 -0.576Q11.912 -1.312 11.328 -2.64Q10.744 -3.968 10.744 -5.744Q10.744 -7.52 11.328 -8.832Q11.912 -10.144 13.12 -10.872Q14.328 -11.6 16.2 -11.6Q18.056 -11.6 19.256 -10.872Q20.456 -10.144 21.04 -8.824Q21.624 -7.504 21.624 -5.728ZM13.288 -5.728Q13.288 -3.936 13.976 -2.904Q14.664 -1.872 16.184 -1.872Q17.736 -1.872 18.408 -2.904Q19.08 -3.936 19.08 -5.728Q19.08 -7.536 18.408 -8.56Q17.736 -9.584 16.2 -9.584Q14.664 -9.584 13.976 -8.56Q13.288 -7.536 13.288 -5.728ZM27.376 0H24.992V-11.424H31.536V-9.44H27.376V-6.496H31.248V-4.512H27.376ZM39.176 0H36.76V-9.408H33.656V-11.424H42.28V-9.408H39.176ZM59.072 -11.424 56.16 0H53.408L51.856 -6Q51.808 -6.176 51.736 -6.528Q51.664 -6.88 51.576 -7.296Q51.488 -7.712 51.424 -8.088Q51.36 -8.464 51.328 -8.672Q51.312 -8.464 51.24 -8.088Q51.168 -7.712 51.088 -7.304Q51.008 -6.896 50.928 -6.536Q50.848 -6.176 50.8 -5.984L49.264 0H46.512L43.6 -11.424H45.984L47.44 -5.184Q47.536 -4.816 47.648 -4.256Q47.76 -3.696 47.856 -3.136Q47.952 -2.576 48 -2.192Q48.048 -2.592 48.144 -3.144Q48.24 -3.696 48.344 -4.216Q48.448 -4.736 48.528 -5.024L50.192 -11.424H52.48L54.144 -5.024Q54.224 -4.752 54.328 -4.224Q54.432 -3.696 54.528 -3.136Q54.624 -2.576 54.672 -2.192Q54.72 -2.592 54.816 -3.144Q54.912 -3.696 55.032 -4.256Q55.152 -4.816 55.232 -5.184L56.688 -11.424ZM68.504 0 67.672 -2.72H63.512L62.68 0H60.072L64.104 -11.472H67.064L71.112 0ZM66.264 -7.408Q66.184 -7.68 66.056 -8.096Q65.928 -8.512 65.8 -8.944Q65.672 -9.376 65.592 -9.696Q65.512 -9.376 65.376 -8.904Q65.24 -8.432 65.12 -8.008Q65 -7.584 64.936 -7.408L64.12 -4.752H67.096ZM76.88 -11.424Q79.216 -11.424 80.328 -10.576Q81.44 -9.728 81.44 -8Q81.44 -7.216 81.144 -6.632Q80.848 -6.048 80.36 -5.64Q79.872 -5.232 79.312 -4.976L82.672 0H79.984L77.264 -4.384H75.968V0H73.552V-11.424ZM76.704 -9.44H75.968V-6.352H76.752Q77.952 -6.352 78.472 -6.752Q78.992 -7.152 78.992 -7.936Q78.992 -8.752 78.44 -9.096Q77.888 -9.44 76.704 -9.44ZM91.688 0H85.112V-11.424H91.688V-9.44H87.528V-6.928H91.4V-4.944H87.528V-2H91.688ZM94.112 -3.312V-5.264H98.304V-3.312ZM110.696 -5.824Q110.696 -2.928 109.056 -1.464Q107.416 0 104.456 0H101.224V-11.424H104.808Q106.6 -11.424 107.92 -10.784Q109.24 -10.144 109.968 -8.904Q110.696 -7.664 110.696 -5.824ZM108.184 -5.76Q108.184 -7.664 107.352 -8.552Q106.52 -9.44 104.936 -9.44H103.64V-2H104.68Q108.184 -2 108.184 -5.76ZM120.64 0H114.064V-11.424H120.64V-9.44H116.48V-6.928H120.352V-4.944H116.48V-2H120.64ZM126.408 0H124.024V-11.424H130.568V-9.44H126.408V-6.496H130.28V-4.512H126.408ZM138.08 0H132.88V-1.376L134.272 -2.016V-9.408L132.88 -10.048V-11.424H138.08V-10.048L136.688 -9.408V-2.016L138.08 -1.376ZM151.16 0H148.088L143.112 -8.64H143.048Q143.08 -7.824 143.12 -7.008Q143.16 -6.192 143.192 -5.376V0H141.032V-11.424H144.088L149.048 -2.864H149.096Q149.08 -3.664 149.048 -4.448Q149.016 -5.232 148.984 -6.016V-11.424H151.16ZM161.616 0H155.04V-11.424H161.616V-9.44H157.456V-6.928H161.328V-4.944H157.456V-2H161.616ZM174.472 -5.824Q174.472 -2.928 172.832 -1.464Q171.192 0 168.232 0H165V-11.424H168.584Q170.376 -11.424 171.696 -10.784Q173.016 -10.144 173.744 -8.904Q174.472 -7.664 174.472 -5.824ZM171.96 -5.76Q171.96 -7.664 171.128 -8.552Q170.296 -9.44 168.712 -9.44H167.416V-2H168.456Q171.96 -2 171.96 -5.76ZM186.328 -11.424Q188.664 -11.424 189.776 -10.576Q190.888 -9.728 190.888 -8Q190.888 -7.216 190.592 -6.632Q190.296 -6.048 189.808 -5.64Q189.32 -5.232 188.76 -4.976L192.12 0H189.432L186.712 -4.384H185.416V0H183V-11.424ZM186.152 -9.44H185.416V-6.352H186.2Q187.4 -6.352 187.92 -6.752Q188.44 -7.152 188.44 -7.936Q188.44 -8.752 187.888 -9.096Q187.336 -9.44 186.152 -9.44ZM201.552 0 200.72 -2.72H196.56L195.728 0H193.12L197.152 -11.472H200.112L204.16 0ZM199.312 -7.408Q199.232 -7.68 199.104 -8.096Q198.976 -8.512 198.848 -8.944Q198.72 -9.376 198.64 -9.696Q198.56 -9.376 198.424 -8.904Q198.288 -8.432 198.168 -8.008Q198.048 -7.584 197.984 -7.408L197.168 -4.752H200.144ZM216.072 -5.824Q216.072 -2.928 214.432 -1.464Q212.792 0 209.832 0H206.6V-11.424H210.184Q211.976 -11.424 213.296 -10.784Q214.616 -10.144 215.344 -8.904Q216.072 -7.664 216.072 -5.824ZM213.56 -5.76Q213.56 -7.664 212.728 -8.552Q211.896 -9.44 210.312 -9.44H209.016V-2H210.056Q213.56 -2 213.56 -5.76ZM223.712 0H218.512V-1.376L219.904 -2.016V-9.408L218.512 -10.048V-11.424H223.712V-10.048L222.32 -9.408V-2.016L223.712 -1.376ZM237.032 -5.728Q237.032 -3.952 236.448 -2.632Q235.864 -1.312 234.664 -0.576Q233.464 0.16 231.592 0.16Q229.736 0.16 228.528 -0.576Q227.32 -1.312 226.736 -2.64Q226.152 -3.968 226.152 -5.744Q226.152 -7.52 226.736 -8.832Q227.32 -10.144 228.528 -10.872Q229.736 -11.6 231.608 -11.6Q233.464 -11.6 234.664 -10.872Q235.864 -10.144 236.448 -8.824Q237.032 -7.504 237.032 -5.728ZM228.696 -5.728Q228.696 -3.936 229.384 -2.904Q230.072 -1.872 231.592 -1.872Q233.144 -1.872 233.816 -2.904Q234.488 -3.936 234.488 -5.728Q234.488 -7.536 233.816 -8.56Q233.144 -9.584 231.608 -9.584Q230.072 -9.584 229.384 -8.56Q228.696 -7.536 228.696 -5.728Z"/></g><path d="M64 437H1216" stroke="#2C443B" stroke-width="1" /><g transform="translate(116 485) scale(1.667)"><g fill="none" stroke-width="2" stroke-linecap="round" stroke-linejoin="round"><g stroke="#F4F7F5"><path d="M16 10h4a2 2 0 0 1 0 4h-4l-4 7h-3l2 -7h-4l-2 2h-3l2 -4l-2 -4h3l2 2h4l-2 -7h3l4 7" transform="rotate(-90 12 12)"/></g><g stroke="#7BECC7"></g></g></g><g aria-label="Aircraft" transform="translate(111.871 565)"><path fill="#F4F7F5" d="M7.63 0 6.426 -3.094H2.464L1.274 0H0L3.906 -10.038H5.04L8.932 0ZM4.928 -7.238Q4.886 -7.35 4.788 -7.644Q4.69 -7.938 4.599 -8.253Q4.508 -8.568 4.452 -8.736Q4.354 -8.302 4.228 -7.889Q4.102 -7.476 4.018 -7.238L2.884 -4.214H6.048ZM10.766 -10.318Q11.046 -10.318 11.263 -10.129Q11.48 -9.94 11.48 -9.534Q11.48 -9.142 11.263 -8.946Q11.046 -8.75 10.766 -8.75Q10.458 -8.75 10.248 -8.946Q10.038 -9.142 10.038 -9.534Q10.038 -9.94 10.248 -10.129Q10.458 -10.318 10.766 -10.318ZM11.368 -7.504V0H10.136V-7.504ZM17.248 -7.644Q17.458 -7.644 17.703 -7.623Q17.948 -7.602 18.13 -7.56L17.976 -6.426Q17.794 -6.468 17.577 -6.496Q17.36 -6.524 17.164 -6.524Q16.59 -6.524 16.086 -6.209Q15.582 -5.894 15.281 -5.327Q14.98 -4.76 14.98 -4.004V0H13.748V-7.504H14.756L14.896 -6.132H14.952Q15.316 -6.748 15.89 -7.196Q16.464 -7.644 17.248 -7.644ZM22.54 0.14Q21.546 0.14 20.769 -0.266Q19.992 -0.672 19.551 -1.526Q19.11 -2.38 19.11 -3.71Q19.11 -5.096 19.572 -5.964Q20.034 -6.832 20.825 -7.238Q21.616 -7.644 22.624 -7.644Q23.198 -7.644 23.73 -7.525Q24.262 -7.406 24.598 -7.238L24.22 -6.216Q23.884 -6.342 23.436 -6.454Q22.988 -6.566 22.596 -6.566Q20.384 -6.566 20.384 -3.724Q20.384 -2.366 20.923 -1.645Q21.462 -0.924 22.526 -0.924Q23.142 -0.924 23.611 -1.05Q24.08 -1.176 24.472 -1.358V-0.266Q24.094 -0.07 23.639 0.035Q23.184 0.14 22.54 0.14ZM29.75 -7.644Q29.96 -7.644 30.205 -7.623Q30.45 -7.602 30.632 -7.56L30.478 -6.426Q30.296 -6.468 30.079 -6.496Q29.862 -6.524 29.666 -6.524Q29.092 -6.524 28.588 -6.209Q28.084 -5.894 27.783 -5.327Q27.482 -4.76 27.482 -4.004V0H26.25V-7.504H27.258L27.398 -6.132H27.454Q27.818 -6.748 28.392 -7.196Q28.966 -7.644 29.75 -7.644ZM34.874 -7.63Q36.246 -7.63 36.904 -7.028Q37.562 -6.426 37.562 -5.11V0H36.666L36.428 -1.064H36.372Q35.882 -0.448 35.343 -0.154Q34.804 0.14 33.852 0.14Q32.83 0.14 32.158 -0.399Q31.486 -0.938 31.486 -2.086Q31.486 -3.206 32.368 -3.815Q33.25 -4.424 35.084 -4.48L36.358 -4.522V-4.97Q36.358 -5.908 35.952 -6.272Q35.546 -6.636 34.804 -6.636Q34.216 -6.636 33.684 -6.461Q33.152 -6.286 32.69 -6.062L32.312 -6.986Q32.802 -7.252 33.474 -7.441Q34.146 -7.63 34.874 -7.63ZM35.238 -3.626Q33.838 -3.57 33.299 -3.178Q32.76 -2.786 32.76 -2.072Q32.76 -1.442 33.145 -1.148Q33.53 -0.854 34.132 -0.854Q35.084 -0.854 35.714 -1.379Q36.344 -1.904 36.344 -2.996V-3.668ZM43.344 -6.552H41.454V0H40.222V-6.552H38.906V-7.126L40.222 -7.546V-7.98Q40.222 -9.436 40.866 -10.073Q41.51 -10.71 42.658 -10.71Q43.106 -10.71 43.477 -10.633Q43.848 -10.556 44.114 -10.458L43.792 -9.492Q43.568 -9.562 43.274 -9.632Q42.98 -9.702 42.672 -9.702Q42.056 -9.702 41.755 -9.289Q41.454 -8.876 41.454 -7.994V-7.504H43.344ZM47.208 -0.868Q47.488 -0.868 47.782 -0.917Q48.076 -0.966 48.258 -1.022V-0.084Q48.062 0.014 47.698 0.077Q47.334 0.14 46.998 0.14Q46.41 0.14 45.913 -0.063Q45.416 -0.266 45.108 -0.77Q44.8 -1.274 44.8 -2.184V-6.552H43.736V-7.14L44.814 -7.63L45.304 -9.226H46.032V-7.504H48.202V-6.552H46.032V-2.212Q46.032 -1.526 46.361 -1.197Q46.69 -0.868 47.208 -0.868Z"/></g><g transform="translate(260 485) scale(1.667)"><g fill="none" stroke-width="2" stroke-linecap="round" stroke-linejoin="round"><g stroke="#F4F7F5"><path d="M4 18l-1 -5h18l-2 4M5 13v-6h8l4 6M7 7v-4h-1"/></g><g stroke="#7BECC7"><path d="M2 20a2.4 2.4 0 0 0 2 1a2.4 2.4 0 0 0 2 -1a2.4 2.4 0 0 1 2 -1a2.4 2.4 0 0 1 2 1a2.4 2.4 0 0 0 2 1a2.4 2.4 0 0 0 2 -1a2.4 2.4 0 0 1 2 -1a2.4 2.4 0 0 1 2 1a2.4 2.4 0 0 0 2 1a2.4 2.4 0 0 0 2 -1"/></g></g></g><g aria-label="Marine" transform="translate(256.431 565)"><path fill="#F4F7F5" d="M5.768 0 2.478 -8.764H2.422Q2.464 -8.33 2.492 -7.595Q2.52 -6.86 2.52 -6.062V0H1.358V-9.996H3.22L6.3 -1.806H6.356L9.492 -9.996H11.34V0H10.094V-6.146Q10.094 -6.874 10.129 -7.588Q10.164 -8.302 10.192 -8.75H10.136L6.804 0ZM16.73 -7.63Q18.102 -7.63 18.76 -7.028Q19.418 -6.426 19.418 -5.11V0H18.522L18.284 -1.064H18.228Q17.738 -0.448 17.199 -0.154Q16.66 0.14 15.708 0.14Q14.686 0.14 14.014 -0.399Q13.342 -0.938 13.342 -2.086Q13.342 -3.206 14.224 -3.815Q15.106 -4.424 16.94 -4.48L18.214 -4.522V-4.97Q18.214 -5.908 17.808 -6.272Q17.402 -6.636 16.66 -6.636Q16.072 -6.636 15.54 -6.461Q15.008 -6.286 14.546 -6.062L14.168 -6.986Q14.658 -7.252 15.33 -7.441Q16.002 -7.63 16.73 -7.63ZM17.094 -3.626Q15.694 -3.57 15.155 -3.178Q14.616 -2.786 14.616 -2.072Q14.616 -1.442 15.001 -1.148Q15.386 -0.854 15.988 -0.854Q16.94 -0.854 17.57 -1.379Q18.2 -1.904 18.2 -2.996V-3.668ZM25.242 -7.644Q25.452 -7.644 25.697 -7.623Q25.942 -7.602 26.124 -7.56L25.97 -6.426Q25.788 -6.468 25.571 -6.496Q25.354 -6.524 25.158 -6.524Q24.584 -6.524 24.08 -6.209Q23.576 -5.894 23.275 -5.327Q22.974 -4.76 22.974 -4.004V0H21.742V-7.504H22.75L22.89 -6.132H22.946Q23.31 -6.748 23.884 -7.196Q24.458 -7.644 25.242 -7.644ZM28.154 -10.318Q28.434 -10.318 28.651 -10.129Q28.868 -9.94 28.868 -9.534Q28.868 -9.142 28.651 -8.946Q28.434 -8.75 28.154 -8.75Q27.846 -8.75 27.636 -8.946Q27.426 -9.142 27.426 -9.534Q27.426 -9.94 27.636 -10.129Q27.846 -10.318 28.154 -10.318ZM28.756 -7.504V0H27.524V-7.504ZM34.748 -7.644Q36.092 -7.644 36.778 -6.993Q37.464 -6.342 37.464 -4.886V0H36.246V-4.802Q36.246 -6.608 34.566 -6.608Q33.32 -6.608 32.844 -5.908Q32.368 -5.208 32.368 -3.892V0H31.136V-7.504H32.13L32.312 -6.482H32.382Q32.746 -7.07 33.39 -7.357Q34.034 -7.644 34.748 -7.644ZM42.686 -7.644Q43.652 -7.644 44.345 -7.224Q45.038 -6.804 45.409 -6.041Q45.78 -5.278 45.78 -4.256V-3.514H40.642Q40.67 -2.24 41.293 -1.575Q41.916 -0.91 43.036 -0.91Q43.75 -0.91 44.303 -1.043Q44.856 -1.176 45.444 -1.428V-0.35Q44.87 -0.098 44.31 0.021Q43.75 0.14 42.98 0.14Q41.916 0.14 41.097 -0.294Q40.278 -0.728 39.823 -1.589Q39.368 -2.45 39.368 -3.696Q39.368 -4.928 39.781 -5.81Q40.194 -6.692 40.943 -7.168Q41.692 -7.644 42.686 -7.644ZM42.672 -6.636Q41.79 -6.636 41.279 -6.069Q40.768 -5.502 40.67 -4.494H44.492Q44.478 -5.446 44.044 -6.041Q43.61 -6.636 42.672 -6.636Z"/></g><g transform="translate(404 485) scale(1.667)"><g fill="none" stroke-width="2" stroke-linecap="round" stroke-linejoin="round"><g stroke="#F4F7F5"><path d="M3 8.5h12a2 2 0 0 1 2 2v6a2 2 0 0 1 -2 2H8l-4 3v-3H3a2 2 0 0 1 -2 -2v-6a2 2 0 0 1 2 -2Z" transform="translate(1 0)"/><path d="M6 11.5h6M6 14.5h3"/></g><g stroke="#7BECC7"><path d="M17 3a5 5 0 0 1 5 5M17 6a2 2 0 0 1 2 2"/></g></g></g><g aria-label="Aviation data" transform="translate(381.405 565)"><path fill="#F4F7F5" d="M7.63 0 6.426 -3.094H2.464L1.274 0H0L3.906 -10.038H5.04L8.932 0ZM4.928 -7.238Q4.886 -7.35 4.788 -7.644Q4.69 -7.938 4.599 -8.253Q4.508 -8.568 4.452 -8.736Q4.354 -8.302 4.228 -7.889Q4.102 -7.476 4.018 -7.238L2.884 -4.214H6.048ZM11.788 0 8.946 -7.504H10.262L11.858 -3.08Q11.97 -2.772 12.096 -2.394Q12.222 -2.016 12.32 -1.673Q12.418 -1.33 12.46 -1.092H12.516Q12.572 -1.33 12.677 -1.68Q12.782 -2.03 12.915 -2.408Q13.048 -2.786 13.146 -3.08L14.742 -7.504H16.058L13.202 0ZM17.878 -10.318Q18.158 -10.318 18.375 -10.129Q18.592 -9.94 18.592 -9.534Q18.592 -9.142 18.375 -8.946Q18.158 -8.75 17.878 -8.75Q17.57 -8.75 17.36 -8.946Q17.15 -9.142 17.15 -9.534Q17.15 -9.94 17.36 -10.129Q17.57 -10.318 17.878 -10.318ZM18.48 -7.504V0H17.248V-7.504ZM23.702 -7.63Q25.074 -7.63 25.732 -7.028Q26.39 -6.426 26.39 -5.11V0H25.494L25.256 -1.064H25.2Q24.71 -0.448 24.171 -0.154Q23.632 0.14 22.68 0.14Q21.658 0.14 20.986 -0.399Q20.314 -0.938 20.314 -2.086Q20.314 -3.206 21.196 -3.815Q22.078 -4.424 23.912 -4.48L25.186 -4.522V-4.97Q25.186 -5.908 24.78 -6.272Q24.374 -6.636 23.632 -6.636Q23.044 -6.636 22.512 -6.461Q21.98 -6.286 21.518 -6.062L21.14 -6.986Q21.63 -7.252 22.302 -7.441Q22.974 -7.63 23.702 -7.63ZM24.066 -3.626Q22.666 -3.57 22.127 -3.178Q21.588 -2.786 21.588 -2.072Q21.588 -1.442 21.973 -1.148Q22.358 -0.854 22.96 -0.854Q23.912 -0.854 24.542 -1.379Q25.172 -1.904 25.172 -2.996V-3.668ZM31.22 -0.868Q31.5 -0.868 31.794 -0.917Q32.088 -0.966 32.27 -1.022V-0.084Q32.074 0.014 31.71 0.077Q31.346 0.14 31.01 0.14Q30.422 0.14 29.925 -0.063Q29.428 -0.266 29.12 -0.77Q28.812 -1.274 28.812 -2.184V-6.552H27.748V-7.14L28.826 -7.63L29.316 -9.226H30.044V-7.504H32.214V-6.552H30.044V-2.212Q30.044 -1.526 30.373 -1.197Q30.702 -0.868 31.22 -0.868ZM34.398 -10.318Q34.678 -10.318 34.895 -10.129Q35.112 -9.94 35.112 -9.534Q35.112 -9.142 34.895 -8.946Q34.678 -8.75 34.398 -8.75Q34.09 -8.75 33.88 -8.946Q33.67 -9.142 33.67 -9.534Q33.67 -9.94 33.88 -10.129Q34.09 -10.318 34.398 -10.318ZM35 -7.504V0H33.768V-7.504ZM43.904 -3.766Q43.904 -1.904 42.959 -0.882Q42.014 0.14 40.404 0.14Q39.41 0.14 38.633 -0.315Q37.856 -0.77 37.408 -1.645Q36.96 -2.52 36.96 -3.766Q36.96 -5.628 37.898 -6.636Q38.836 -7.644 40.446 -7.644Q41.468 -7.644 42.245 -7.189Q43.022 -6.734 43.463 -5.873Q43.904 -5.012 43.904 -3.766ZM38.234 -3.766Q38.234 -2.436 38.759 -1.659Q39.284 -0.882 40.432 -0.882Q41.566 -0.882 42.098 -1.659Q42.63 -2.436 42.63 -3.766Q42.63 -5.096 42.098 -5.852Q41.566 -6.608 40.418 -6.608Q39.27 -6.608 38.752 -5.852Q38.234 -5.096 38.234 -3.766ZM49.462 -7.644Q50.806 -7.644 51.492 -6.993Q52.178 -6.342 52.178 -4.886V0H50.96V-4.802Q50.96 -6.608 49.28 -6.608Q48.034 -6.608 47.558 -5.908Q47.082 -5.208 47.082 -3.892V0H45.85V-7.504H46.844L47.026 -6.482H47.096Q47.46 -7.07 48.104 -7.357Q48.748 -7.644 49.462 -7.644ZM60.802 0.14Q59.402 0.14 58.562 -0.833Q57.722 -1.806 57.722 -3.738Q57.722 -5.67 58.569 -6.657Q59.416 -7.644 60.816 -7.644Q61.684 -7.644 62.237 -7.322Q62.79 -7 63.14 -6.538H63.224Q63.21 -6.72 63.175 -7.077Q63.14 -7.434 63.14 -7.644V-10.64H64.372V0H63.378L63.196 -1.008H63.14Q62.804 -0.532 62.244 -0.196Q61.684 0.14 60.802 0.14ZM60.998 -0.882Q62.188 -0.882 62.671 -1.533Q63.154 -2.184 63.154 -3.5V-3.724Q63.154 -5.124 62.692 -5.873Q62.23 -6.622 60.984 -6.622Q59.99 -6.622 59.493 -5.831Q58.996 -5.04 58.996 -3.71Q58.996 -2.366 59.493 -1.624Q59.99 -0.882 60.998 -0.882ZM69.594 -7.63Q70.966 -7.63 71.624 -7.028Q72.282 -6.426 72.282 -5.11V0H71.386L71.148 -1.064H71.092Q70.602 -0.448 70.063 -0.154Q69.524 0.14 68.572 0.14Q67.55 0.14 66.878 -0.399Q66.206 -0.938 66.206 -2.086Q66.206 -3.206 67.088 -3.815Q67.97 -4.424 69.804 -4.48L71.078 -4.522V-4.97Q71.078 -5.908 70.672 -6.272Q70.266 -6.636 69.524 -6.636Q68.936 -6.636 68.404 -6.461Q67.872 -6.286 67.41 -6.062L67.032 -6.986Q67.522 -7.252 68.194 -7.441Q68.866 -7.63 69.594 -7.63ZM69.958 -3.626Q68.558 -3.57 68.019 -3.178Q67.48 -2.786 67.48 -2.072Q67.48 -1.442 67.865 -1.148Q68.25 -0.854 68.852 -0.854Q69.804 -0.854 70.434 -1.379Q71.064 -1.904 71.064 -2.996V-3.668ZM77.112 -0.868Q77.392 -0.868 77.686 -0.917Q77.98 -0.966 78.162 -1.022V-0.084Q77.966 0.014 77.602 0.077Q77.238 0.14 76.902 0.14Q76.314 0.14 75.817 -0.063Q75.32 -0.266 75.012 -0.77Q74.704 -1.274 74.704 -2.184V-6.552H73.64V-7.14L74.718 -7.63L75.208 -9.226H75.936V-7.504H78.106V-6.552H75.936V-2.212Q75.936 -1.526 76.265 -1.197Q76.594 -0.868 77.112 -0.868ZM82.502 -7.63Q83.874 -7.63 84.532 -7.028Q85.19 -6.426 85.19 -5.11V0H84.294L84.056 -1.064H84Q83.51 -0.448 82.971 -0.154Q82.432 0.14 81.48 0.14Q80.458 0.14 79.786 -0.399Q79.114 -0.938 79.114 -2.086Q79.114 -3.206 79.996 -3.815Q80.878 -4.424 82.712 -4.48L83.986 -4.522V-4.97Q83.986 -5.908 83.58 -6.272Q83.174 -6.636 82.432 -6.636Q81.844 -6.636 81.312 -6.461Q80.78 -6.286 80.318 -6.062L79.94 -6.986Q80.43 -7.252 81.102 -7.441Q81.774 -7.63 82.502 -7.63ZM82.866 -3.626Q81.466 -3.57 80.927 -3.178Q80.388 -2.786 80.388 -2.072Q80.388 -1.442 80.773 -1.148Q81.158 -0.854 81.76 -0.854Q82.712 -0.854 83.342 -1.379Q83.972 -1.904 83.972 -2.996V-3.668Z"/></g><g transform="translate(548 485) scale(1.667)"><g fill="none" stroke-width="2" stroke-linecap="round" stroke-linejoin="round"><g stroke="#F4F7F5"><path d="M9 5a3 3 0 0 1 3 -3a3 3 0 0 1 3 3v5a3 3 0 0 1 -3 3a3 3 0 0 1 -3 -3V5M8 21h8M12 17v4"/></g><g stroke="#7BECC7"><path d="M5 10a7 7 0 0 0 14 0"/></g></g></g><g aria-label="Voice" transform="translate(550.808 565)"><path fill="#F4F7F5" d="M8.4 -9.996 4.83 0H3.57L0 -9.996H1.316L3.57 -3.584Q3.794 -2.968 3.948 -2.429Q4.102 -1.89 4.2 -1.4Q4.298 -1.89 4.452 -2.436Q4.606 -2.982 4.83 -3.612L7.07 -9.996ZM16.114 -3.766Q16.114 -1.904 15.169 -0.882Q14.224 0.14 12.614 0.14Q11.62 0.14 10.843 -0.315Q10.066 -0.77 9.618 -1.645Q9.17 -2.52 9.17 -3.766Q9.17 -5.628 10.108 -6.636Q11.046 -7.644 12.656 -7.644Q13.678 -7.644 14.455 -7.189Q15.232 -6.734 15.673 -5.873Q16.114 -5.012 16.114 -3.766ZM10.444 -3.766Q10.444 -2.436 10.969 -1.659Q11.494 -0.882 12.642 -0.882Q13.776 -0.882 14.308 -1.659Q14.84 -2.436 14.84 -3.766Q14.84 -5.096 14.308 -5.852Q13.776 -6.608 12.628 -6.608Q11.48 -6.608 10.962 -5.852Q10.444 -5.096 10.444 -3.766ZM18.69 -10.318Q18.97 -10.318 19.187 -10.129Q19.404 -9.94 19.404 -9.534Q19.404 -9.142 19.187 -8.946Q18.97 -8.75 18.69 -8.75Q18.382 -8.75 18.172 -8.946Q17.962 -9.142 17.962 -9.534Q17.962 -9.94 18.172 -10.129Q18.382 -10.318 18.69 -10.318ZM19.292 -7.504V0H18.06V-7.504ZM24.682 0.14Q23.688 0.14 22.911 -0.266Q22.134 -0.672 21.693 -1.526Q21.252 -2.38 21.252 -3.71Q21.252 -5.096 21.714 -5.964Q22.176 -6.832 22.967 -7.238Q23.758 -7.644 24.766 -7.644Q25.34 -7.644 25.872 -7.525Q26.404 -7.406 26.74 -7.238L26.362 -6.216Q26.026 -6.342 25.578 -6.454Q25.13 -6.566 24.738 -6.566Q22.526 -6.566 22.526 -3.724Q22.526 -2.366 23.065 -1.645Q23.604 -0.924 24.668 -0.924Q25.284 -0.924 25.753 -1.05Q26.222 -1.176 26.614 -1.358V-0.266Q26.236 -0.07 25.781 0.035Q25.326 0.14 24.682 0.14ZM31.29 -7.644Q32.256 -7.644 32.949 -7.224Q33.642 -6.804 34.013 -6.041Q34.384 -5.278 34.384 -4.256V-3.514H29.246Q29.274 -2.24 29.897 -1.575Q30.52 -0.91 31.64 -0.91Q32.354 -0.91 32.907 -1.043Q33.46 -1.176 34.048 -1.428V-0.35Q33.474 -0.098 32.914 0.021Q32.354 0.14 31.584 0.14Q30.52 0.14 29.701 -0.294Q28.882 -0.728 28.427 -1.589Q27.972 -2.45 27.972 -3.696Q27.972 -4.928 28.385 -5.81Q28.798 -6.692 29.547 -7.168Q30.296 -7.644 31.29 -7.644ZM31.276 -6.636Q30.394 -6.636 29.883 -6.069Q29.372 -5.502 29.274 -4.494H33.096Q33.082 -5.446 32.648 -6.041Q32.214 -6.636 31.276 -6.636Z"/></g><g transform="translate(692 485) scale(1.667)"><g fill="none" stroke-width="2" stroke-linecap="round" stroke-linejoin="round"><g stroke="#F4F7F5"><rect x="2" y="5" width="20" height="14" rx="3"/><path d="M6 16h2M12 16h.01M16 16h.01"/></g><g stroke="#7BECC7"><rect x="6" y="8" width="12" height="5" rx="1"/></g></g></g><g aria-label="Paging" transform="translate(689.012 565)"><path fill="#F4F7F5" d="M4.004 -9.996Q5.964 -9.996 6.86 -9.226Q7.756 -8.456 7.756 -7.056Q7.756 -6.23 7.385 -5.509Q7.014 -4.788 6.139 -4.34Q5.264 -3.892 3.766 -3.892H2.618V0H1.358V-9.996ZM3.892 -8.918H2.618V-4.97H3.626Q5.054 -4.97 5.754 -5.432Q6.454 -5.894 6.454 -7Q6.454 -7.966 5.838 -8.442Q5.222 -8.918 3.892 -8.918ZM12.502 -7.63Q13.874 -7.63 14.532 -7.028Q15.19 -6.426 15.19 -5.11V0H14.294L14.056 -1.064H14Q13.51 -0.448 12.971 -0.154Q12.432 0.14 11.48 0.14Q10.458 0.14 9.786 -0.399Q9.114 -0.938 9.114 -2.086Q9.114 -3.206 9.996 -3.815Q10.878 -4.424 12.712 -4.48L13.986 -4.522V-4.97Q13.986 -5.908 13.58 -6.272Q13.174 -6.636 12.432 -6.636Q11.844 -6.636 11.312 -6.461Q10.78 -6.286 10.318 -6.062L9.94 -6.986Q10.43 -7.252 11.102 -7.441Q11.774 -7.63 12.502 -7.63ZM12.866 -3.626Q11.466 -3.57 10.927 -3.178Q10.388 -2.786 10.388 -2.072Q10.388 -1.442 10.773 -1.148Q11.158 -0.854 11.76 -0.854Q12.712 -0.854 13.342 -1.379Q13.972 -1.904 13.972 -2.996V-3.668ZM20.174 -7.644Q20.916 -7.644 21.511 -7.364Q22.106 -7.084 22.526 -6.51H22.596L22.764 -7.504H23.744V0.126Q23.744 1.736 22.925 2.548Q22.106 3.36 20.384 3.36Q18.732 3.36 17.682 2.884V1.75Q18.788 2.338 20.454 2.338Q21.42 2.338 21.973 1.771Q22.526 1.204 22.526 0.224V-0.07Q22.526 -0.238 22.54 -0.553Q22.554 -0.868 22.568 -0.994H22.512Q21.756 0.14 20.188 0.14Q18.732 0.14 17.913 -0.882Q17.094 -1.904 17.094 -3.738Q17.094 -5.53 17.913 -6.587Q18.732 -7.644 20.174 -7.644ZM20.342 -6.608Q19.404 -6.608 18.886 -5.859Q18.368 -5.11 18.368 -3.724Q18.368 -2.338 18.879 -1.603Q19.39 -0.868 20.37 -0.868Q21.504 -0.868 22.022 -1.477Q22.54 -2.086 22.54 -3.444V-3.738Q22.54 -5.278 22.008 -5.943Q21.476 -6.608 20.342 -6.608ZM26.754 -10.318Q27.034 -10.318 27.251 -10.129Q27.468 -9.94 27.468 -9.534Q27.468 -9.142 27.251 -8.946Q27.034 -8.75 26.754 -8.75Q26.446 -8.75 26.236 -8.946Q26.026 -9.142 26.026 -9.534Q26.026 -9.94 26.236 -10.129Q26.446 -10.318 26.754 -10.318ZM27.356 -7.504V0H26.124V-7.504ZM33.348 -7.644Q34.692 -7.644 35.378 -6.993Q36.064 -6.342 36.064 -4.886V0H34.846V-4.802Q34.846 -6.608 33.166 -6.608Q31.92 -6.608 31.444 -5.908Q30.968 -5.208 30.968 -3.892V0H29.736V-7.504H30.73L30.912 -6.482H30.982Q31.346 -7.07 31.99 -7.357Q32.634 -7.644 33.348 -7.644ZM41.048 -7.644Q41.79 -7.644 42.385 -7.364Q42.98 -7.084 43.4 -6.51H43.47L43.638 -7.504H44.618V0.126Q44.618 1.736 43.799 2.548Q42.98 3.36 41.258 3.36Q39.606 3.36 38.556 2.884V1.75Q39.662 2.338 41.328 2.338Q42.294 2.338 42.847 1.771Q43.4 1.204 43.4 0.224V-0.07Q43.4 -0.238 43.414 -0.553Q43.428 -0.868 43.442 -0.994H43.386Q42.63 0.14 41.062 0.14Q39.606 0.14 38.787 -0.882Q37.968 -1.904 37.968 -3.738Q37.968 -5.53 38.787 -6.587Q39.606 -7.644 41.048 -7.644ZM41.216 -6.608Q40.278 -6.608 39.76 -5.859Q39.242 -5.11 39.242 -3.724Q39.242 -2.338 39.753 -1.603Q40.264 -0.868 41.244 -0.868Q42.378 -0.868 42.896 -1.477Q43.414 -2.086 43.414 -3.444V-3.738Q43.414 -5.278 42.882 -5.943Q42.35 -6.608 41.216 -6.608Z"/></g><g transform="translate(836 485) scale(1.667)"><g fill="none" stroke-width="2" stroke-linecap="round" stroke-linejoin="round"><g stroke="#F4F7F5"><path d="M17.657 16.657l-4.243 4.243a2 2 0 0 1 -2.827 0l-4.244 -4.243a8 8 0 1 1 11.314 0"/></g><g stroke="#7BECC7"><path d="M9 11a3 3 0 1 0 6 0a3 3 0 0 0 -6 0"/></g></g></g><g aria-label="APRS" transform="translate(839.424 565)"><path fill="#F4F7F5" d="M7.63 0 6.426 -3.094H2.464L1.274 0H0L3.906 -10.038H5.04L8.932 0ZM4.928 -7.238Q4.886 -7.35 4.788 -7.644Q4.69 -7.938 4.599 -8.253Q4.508 -8.568 4.452 -8.736Q4.354 -8.302 4.228 -7.889Q4.102 -7.476 4.018 -7.238L2.884 -4.214H6.048ZM12.95 -9.996Q14.91 -9.996 15.806 -9.226Q16.702 -8.456 16.702 -7.056Q16.702 -6.23 16.331 -5.509Q15.96 -4.788 15.085 -4.34Q14.21 -3.892 12.712 -3.892H11.564V0H10.304V-9.996ZM12.838 -8.918H11.564V-4.97H12.572Q14 -4.97 14.7 -5.432Q15.4 -5.894 15.4 -7Q15.4 -7.966 14.784 -8.442Q14.168 -8.918 12.838 -8.918ZM21.532 -9.996Q23.394 -9.996 24.283 -9.289Q25.172 -8.582 25.172 -7.154Q25.172 -6.356 24.878 -5.824Q24.584 -5.292 24.129 -4.977Q23.674 -4.662 23.17 -4.48L25.914 0H24.444L22.022 -4.13H20.034V0H18.774V-9.996ZM21.462 -8.904H20.034V-5.194H21.532Q22.75 -5.194 23.31 -5.677Q23.87 -6.16 23.87 -7.098Q23.87 -8.078 23.282 -8.491Q22.694 -8.904 21.462 -8.904ZM33.152 -2.674Q33.152 -1.344 32.186 -0.602Q31.22 0.14 29.582 0.14Q28.742 0.14 28.028 0.014Q27.314 -0.112 26.838 -0.336V-1.54Q27.342 -1.316 28.091 -1.134Q28.84 -0.952 29.638 -0.952Q30.758 -0.952 31.325 -1.386Q31.892 -1.82 31.892 -2.562Q31.892 -3.052 31.682 -3.388Q31.472 -3.724 30.961 -4.011Q30.45 -4.298 29.54 -4.62Q28.266 -5.082 27.615 -5.754Q26.964 -6.426 26.964 -7.588Q26.964 -8.386 27.37 -8.953Q27.776 -9.52 28.497 -9.828Q29.218 -10.136 30.156 -10.136Q30.982 -10.136 31.668 -9.982Q32.354 -9.828 32.914 -9.576L32.522 -8.498Q32.004 -8.722 31.395 -8.876Q30.786 -9.03 30.128 -9.03Q29.19 -9.03 28.714 -8.631Q28.238 -8.232 28.238 -7.574Q28.238 -7.07 28.448 -6.734Q28.658 -6.398 29.134 -6.132Q29.61 -5.866 30.422 -5.558Q31.304 -5.236 31.913 -4.865Q32.522 -4.494 32.837 -3.976Q33.152 -3.458 33.152 -2.674Z"/></g><g transform="translate(980 485) scale(1.667)"><g fill="none" stroke-width="2" stroke-linecap="round" stroke-linejoin="round"><g stroke="#F4F7F5"><path d="M12 12v.01M14.828 9.172a4 4 0 0 1 0 5.656M9.168 14.828a4 4 0 0 1 0 -5.656"/></g><g stroke="#7BECC7"><path d="M17.657 6.343a8 8 0 0 1 0 11.314M6.337 17.657a8 8 0 0 1 0 -11.314"/></g></g></g><g aria-label="Sensors" transform="translate(974.009 565)"><path fill="#F4F7F5" d="M7.028 -2.674Q7.028 -1.344 6.062 -0.602Q5.096 0.14 3.458 0.14Q2.618 0.14 1.904 0.014Q1.19 -0.112 0.714 -0.336V-1.54Q1.218 -1.316 1.967 -1.134Q2.716 -0.952 3.514 -0.952Q4.634 -0.952 5.201 -1.386Q5.768 -1.82 5.768 -2.562Q5.768 -3.052 5.558 -3.388Q5.348 -3.724 4.837 -4.011Q4.326 -4.298 3.416 -4.62Q2.142 -5.082 1.491 -5.754Q0.84 -6.426 0.84 -7.588Q0.84 -8.386 1.246 -8.953Q1.652 -9.52 2.373 -9.828Q3.094 -10.136 4.032 -10.136Q4.858 -10.136 5.544 -9.982Q6.23 -9.828 6.79 -9.576L6.398 -8.498Q5.88 -8.722 5.271 -8.876Q4.662 -9.03 4.004 -9.03Q3.066 -9.03 2.59 -8.631Q2.114 -8.232 2.114 -7.574Q2.114 -7.07 2.324 -6.734Q2.534 -6.398 3.01 -6.132Q3.486 -5.866 4.298 -5.558Q5.18 -5.236 5.789 -4.865Q6.398 -4.494 6.713 -3.976Q7.028 -3.458 7.028 -2.674ZM11.774 -7.644Q12.74 -7.644 13.433 -7.224Q14.126 -6.804 14.497 -6.041Q14.868 -5.278 14.868 -4.256V-3.514H9.73Q9.758 -2.24 10.381 -1.575Q11.004 -0.91 12.124 -0.91Q12.838 -0.91 13.391 -1.043Q13.944 -1.176 14.532 -1.428V-0.35Q13.958 -0.098 13.398 0.021Q12.838 0.14 12.068 0.14Q11.004 0.14 10.185 -0.294Q9.366 -0.728 8.911 -1.589Q8.456 -2.45 8.456 -3.696Q8.456 -4.928 8.869 -5.81Q9.282 -6.692 10.031 -7.168Q10.78 -7.644 11.774 -7.644ZM11.76 -6.636Q10.878 -6.636 10.367 -6.069Q9.856 -5.502 9.758 -4.494H13.58Q13.566 -5.446 13.132 -6.041Q12.698 -6.636 11.76 -6.636ZM20.384 -7.644Q21.728 -7.644 22.414 -6.993Q23.1 -6.342 23.1 -4.886V0H21.882V-4.802Q21.882 -6.608 20.202 -6.608Q18.956 -6.608 18.48 -5.908Q18.004 -5.208 18.004 -3.892V0H16.772V-7.504H17.766L17.948 -6.482H18.018Q18.382 -7.07 19.026 -7.357Q19.67 -7.644 20.384 -7.644ZM30.31 -2.072Q30.31 -0.98 29.498 -0.42Q28.686 0.14 27.314 0.14Q26.53 0.14 25.963 0.014Q25.396 -0.112 24.962 -0.336V-1.456Q25.41 -1.232 26.047 -1.043Q26.684 -0.854 27.342 -0.854Q28.28 -0.854 28.7 -1.155Q29.12 -1.456 29.12 -1.96Q29.12 -2.24 28.966 -2.464Q28.812 -2.688 28.413 -2.912Q28.014 -3.136 27.272 -3.416Q26.544 -3.696 26.026 -3.976Q25.508 -4.256 25.228 -4.648Q24.948 -5.04 24.948 -5.656Q24.948 -6.608 25.725 -7.126Q26.502 -7.644 27.762 -7.644Q28.448 -7.644 29.043 -7.511Q29.638 -7.378 30.156 -7.14L29.736 -6.16Q29.26 -6.356 28.742 -6.496Q28.224 -6.636 27.678 -6.636Q26.922 -6.636 26.523 -6.391Q26.124 -6.146 26.124 -5.726Q26.124 -5.418 26.306 -5.201Q26.488 -4.984 26.915 -4.781Q27.342 -4.578 28.056 -4.298Q28.77 -4.032 29.274 -3.752Q29.778 -3.472 30.044 -3.073Q30.31 -2.674 30.31 -2.072ZM38.654 -3.766Q38.654 -1.904 37.709 -0.882Q36.764 0.14 35.154 0.14Q34.16 0.14 33.383 -0.315Q32.606 -0.77 32.158 -1.645Q31.71 -2.52 31.71 -3.766Q31.71 -5.628 32.648 -6.636Q33.586 -7.644 35.196 -7.644Q36.218 -7.644 36.995 -7.189Q37.772 -6.734 38.213 -5.873Q38.654 -5.012 38.654 -3.766ZM32.984 -3.766Q32.984 -2.436 33.509 -1.659Q34.034 -0.882 35.182 -0.882Q36.316 -0.882 36.848 -1.659Q37.38 -2.436 37.38 -3.766Q37.38 -5.096 36.848 -5.852Q36.316 -6.608 35.168 -6.608Q34.02 -6.608 33.502 -5.852Q32.984 -5.096 32.984 -3.766ZM44.1 -7.644Q44.31 -7.644 44.555 -7.623Q44.8 -7.602 44.982 -7.56L44.828 -6.426Q44.646 -6.468 44.429 -6.496Q44.212 -6.524 44.016 -6.524Q43.442 -6.524 42.938 -6.209Q42.434 -5.894 42.133 -5.327Q41.832 -4.76 41.832 -4.004V0H40.6V-7.504H41.608L41.748 -6.132H41.804Q42.168 -6.748 42.742 -7.196Q43.316 -7.644 44.1 -7.644ZM51.268 -2.072Q51.268 -0.98 50.456 -0.42Q49.644 0.14 48.272 0.14Q47.488 0.14 46.921 0.014Q46.354 -0.112 45.92 -0.336V-1.456Q46.368 -1.232 47.005 -1.043Q47.642 -0.854 48.3 -0.854Q49.238 -0.854 49.658 -1.155Q50.078 -1.456 50.078 -1.96Q50.078 -2.24 49.924 -2.464Q49.77 -2.688 49.371 -2.912Q48.972 -3.136 48.23 -3.416Q47.502 -3.696 46.984 -3.976Q46.466 -4.256 46.186 -4.648Q45.906 -5.04 45.906 -5.656Q45.906 -6.608 46.683 -7.126Q47.46 -7.644 48.72 -7.644Q49.406 -7.644 50.001 -7.511Q50.596 -7.378 51.114 -7.14L50.694 -6.16Q50.218 -6.356 49.7 -6.496Q49.182 -6.636 48.636 -6.636Q47.88 -6.636 47.481 -6.391Q47.082 -6.146 47.082 -5.726Q47.082 -5.418 47.264 -5.201Q47.446 -4.984 47.873 -4.781Q48.3 -4.578 49.014 -4.298Q49.728 -4.032 50.232 -3.752Q50.736 -3.472 51.002 -3.073Q51.268 -2.674 51.268 -2.072Z"/></g><g transform="translate(1124 485) scale(1.667)"><g fill="none" stroke-width="2" stroke-linecap="round" stroke-linejoin="round"><g stroke="#F4F7F5"><path d="m10.82 7.2 -5.14 9.6M13.18 7.2l5.14 9.6M7 19h10"/></g><g stroke="#7BECC7"><circle cx="12" cy="5" r="2.5"/><circle cx="4.5" cy="19" r="2.5"/><circle cx="19.5" cy="19" r="2.5"/></g></g></g><g aria-label="Mesh" transform="translate(1125.912 565)"><path fill="#F4F7F5" d="M5.768 0 2.478 -8.764H2.422Q2.464 -8.33 2.492 -7.595Q2.52 -6.86 2.52 -6.062V0H1.358V-9.996H3.22L6.3 -1.806H6.356L9.492 -9.996H11.34V0H10.094V-6.146Q10.094 -6.874 10.129 -7.588Q10.164 -8.302 10.192 -8.75H10.136L6.804 0ZM16.786 -7.644Q17.752 -7.644 18.445 -7.224Q19.138 -6.804 19.509 -6.041Q19.88 -5.278 19.88 -4.256V-3.514H14.742Q14.77 -2.24 15.393 -1.575Q16.016 -0.91 17.136 -0.91Q17.85 -0.91 18.403 -1.043Q18.956 -1.176 19.544 -1.428V-0.35Q18.97 -0.098 18.41 0.021Q17.85 0.14 17.08 0.14Q16.016 0.14 15.197 -0.294Q14.378 -0.728 13.923 -1.589Q13.468 -2.45 13.468 -3.696Q13.468 -4.928 13.881 -5.81Q14.294 -6.692 15.043 -7.168Q15.792 -7.644 16.786 -7.644ZM16.772 -6.636Q15.89 -6.636 15.379 -6.069Q14.868 -5.502 14.77 -4.494H18.592Q18.578 -5.446 18.144 -6.041Q17.71 -6.636 16.772 -6.636ZM26.67 -2.072Q26.67 -0.98 25.858 -0.42Q25.046 0.14 23.674 0.14Q22.89 0.14 22.323 0.014Q21.756 -0.112 21.322 -0.336V-1.456Q21.77 -1.232 22.407 -1.043Q23.044 -0.854 23.702 -0.854Q24.64 -0.854 25.06 -1.155Q25.48 -1.456 25.48 -1.96Q25.48 -2.24 25.326 -2.464Q25.172 -2.688 24.773 -2.912Q24.374 -3.136 23.632 -3.416Q22.904 -3.696 22.386 -3.976Q21.868 -4.256 21.588 -4.648Q21.308 -5.04 21.308 -5.656Q21.308 -6.608 22.085 -7.126Q22.862 -7.644 24.122 -7.644Q24.808 -7.644 25.403 -7.511Q25.998 -7.378 26.516 -7.14L26.096 -6.16Q25.62 -6.356 25.102 -6.496Q24.584 -6.636 24.038 -6.636Q23.282 -6.636 22.883 -6.391Q22.484 -6.146 22.484 -5.726Q22.484 -5.418 22.666 -5.201Q22.848 -4.984 23.275 -4.781Q23.702 -4.578 24.416 -4.298Q25.13 -4.032 25.634 -3.752Q26.138 -3.472 26.404 -3.073Q26.67 -2.674 26.67 -2.072ZM29.722 -7.518Q29.722 -6.958 29.652 -6.468H29.736Q30.1 -7.042 30.723 -7.336Q31.346 -7.63 32.074 -7.63Q33.446 -7.63 34.132 -6.979Q34.818 -6.328 34.818 -4.886V0H33.6V-4.802Q33.6 -6.608 31.92 -6.608Q30.66 -6.608 30.191 -5.901Q29.722 -5.194 29.722 -3.878V0H28.49V-10.64H29.722Z"/></g>
</svg>
